<svg width="9" height="9" viewBox="0 0 9 9" fill="none" xmlns="http://www.w3.org/2000/svg">
<path d="M8.35219 4.58732C8.34151 4.56322 8.08306 3.98987 7.5085 3.4153C6.74292 2.64972 5.77595 2.24512 4.71165 2.24512C3.64734 2.24512 2.68037 2.64972 1.91479 3.4153C1.34023 3.98987 1.08056 4.56413 1.0711 4.58732C1.05722 4.61854 1.05005 4.65232 1.05005 4.68649C1.05005 4.72065 1.05722 4.75444 1.0711 4.78566C1.08178 4.80976 1.34023 5.3828 1.91479 5.95737C2.68037 6.72264 3.64734 7.12725 4.71165 7.12725C5.77595 7.12725 6.74292 6.72264 7.5085 5.95737C8.08306 5.3828 8.34151 4.80976 8.35219 4.78566C8.36607 4.75444 8.37324 4.72065 8.37324 4.68649C8.37324 4.65232 8.36607 4.61854 8.35219 4.58732ZM4.71165 5.90672C4.47025 5.90672 4.23427 5.83513 4.03355 5.70102C3.83284 5.56691 3.6764 5.37629 3.58402 5.15326C3.49164 4.93024 3.46747 4.68483 3.51456 4.44807C3.56166 4.21131 3.6779 3.99383 3.8486 3.82314C4.01929 3.65244 4.23677 3.5362 4.47353 3.4891C4.71029 3.44201 4.9557 3.46618 5.17872 3.55856C5.40175 3.65094 5.59237 3.80738 5.72648 4.00809C5.8606 4.20881 5.93218 4.44479 5.93218 4.68618C5.93218 5.00989 5.80359 5.32034 5.57469 5.54923C5.3458 5.77813 5.03535 5.90672 4.71165 5.90672Z" fill="#7C889D"/>
</svg>
