<svg width="23" height="23" viewBox="0 0 23 23" fill="none" xmlns="http://www.w3.org/2000/svg">
<path d="M21.6033 15.1423L12.7874 8.52857L14.8507 6.98069C14.9382 6.91524 15.0093 6.8303 15.0583 6.7326C15.1073 6.6349 15.1329 6.52712 15.133 6.41782C15.133 5.48481 14.7624 4.59001 14.1026 3.93028C13.4429 3.27054 12.5481 2.8999 11.6151 2.8999C10.6821 2.8999 9.78728 3.27054 9.12754 3.93028C8.46781 4.59001 8.09717 5.48481 8.09717 6.41782C8.09717 6.60442 8.1713 6.78338 8.30324 6.91533C8.43519 7.04728 8.61415 7.12141 8.80075 7.12141C8.98735 7.12141 9.16631 7.04728 9.29826 6.91533C9.43021 6.78338 9.50434 6.60442 9.50434 6.41782C9.50576 5.88787 9.70648 5.37784 10.0666 4.98906C10.4268 4.60028 10.92 4.36121 11.4483 4.31934C11.9766 4.27746 12.5013 4.43585 12.9182 4.76304C13.3351 5.09023 13.6137 5.56226 13.6986 6.08538L11.2053 7.95603L11.1806 7.9745L1.62684 15.1423C1.39074 15.3193 1.2163 15.5661 1.12817 15.8478C1.04004 16.1294 1.0427 16.4317 1.13576 16.7117C1.22882 16.9918 1.40758 17.2355 1.64674 17.4084C1.88591 17.5813 2.17338 17.6746 2.4685 17.6752H20.7617C21.057 17.6752 21.3449 17.5822 21.5845 17.4095C21.8241 17.2369 22.0032 16.9932 22.0966 16.713C22.19 16.4328 22.1929 16.1303 22.1048 15.8484C22.0168 15.5665 21.8423 15.3195 21.606 15.1423H21.6033ZM20.7617 16.268H2.4685L11.6151 9.40805L20.7617 16.268Z" fill="#1B1815"/>
</svg>
