<svg width="24" height="24" viewBox="0 0 24 24" fill="none" xmlns="http://www.w3.org/2000/svg">
<path d="M22.0553 10.3909H19.532L15.723 6.58192C15.5928 6.45068 15.4378 6.34663 15.2671 6.27582C15.0963 6.20501 14.9132 6.16885 14.7283 6.16944H4.84209C4.61096 6.16987 4.38349 6.22722 4.17979 6.33644C3.97608 6.44565 3.80242 6.60336 3.67414 6.79563L1.0656 10.704C0.988959 10.8199 0.947983 10.9556 0.947754 11.0945L0.947754 15.316C0.947754 15.6892 1.09601 16.0472 1.3599 16.311C1.6238 16.5749 1.98172 16.7232 2.35492 16.7232H3.85004C4.00504 17.3286 4.35711 17.8651 4.85075 18.2483C5.34439 18.6315 5.95152 18.8395 6.57643 18.8395C7.20133 18.8395 7.80846 18.6315 8.3021 18.2483C8.79574 17.8651 9.14781 17.3286 9.30281 16.7232H15.1074C15.2624 17.3286 15.6145 17.8651 16.1081 18.2483C16.6017 18.6315 17.2089 18.8395 17.8338 18.8395C18.4587 18.8395 19.0658 18.6315 19.5594 18.2483C20.0531 17.8651 20.4052 17.3286 20.5602 16.7232H22.0553C22.4285 16.7232 22.7864 16.5749 23.0503 16.311C23.3142 16.0472 23.4624 15.6892 23.4624 15.316V11.7981C23.4624 11.4249 23.3142 11.067 23.0503 10.8031C22.7864 10.5392 22.4285 10.3909 22.0553 10.3909ZM4.84209 7.57661H14.7283L17.5427 10.3909H2.97056L4.84209 7.57661ZM6.57643 17.4268C6.29811 17.4268 6.02605 17.3443 5.79464 17.1896C5.56324 17.035 5.38288 16.8152 5.27637 16.5581C5.16987 16.301 5.142 16.0181 5.1963 15.7451C5.25059 15.4721 5.38461 15.2214 5.58141 15.0246C5.7782 14.8278 6.02894 14.6938 6.3019 14.6395C6.57486 14.5852 6.8578 14.6131 7.11492 14.7196C7.37205 14.8261 7.59182 15.0064 7.74644 15.2378C7.90106 15.4692 7.98359 15.7413 7.98359 16.0196C7.98359 16.3928 7.83534 16.7507 7.57144 17.0146C7.30755 17.2785 6.94963 17.4268 6.57643 17.4268ZM17.8338 17.4268C17.5555 17.4268 17.2834 17.3443 17.052 17.1896C16.8206 17.035 16.6402 16.8152 16.5337 16.5581C16.4272 16.301 16.3993 16.0181 16.4536 15.7451C16.5079 15.4721 16.642 15.2214 16.8387 15.0246C17.0355 14.8278 17.2863 14.6938 17.5592 14.6395C17.8322 14.5852 18.1151 14.6131 18.3723 14.7196C18.6294 14.8261 18.8492 15.0064 19.0038 15.2378C19.1584 15.4692 19.2409 15.7413 19.2409 16.0196C19.2409 16.3928 19.0927 16.7507 18.8288 17.0146C18.5649 17.2785 18.207 17.4268 17.8338 17.4268ZM22.0553 15.316H20.5602C20.4052 14.7107 20.0531 14.1741 19.5594 13.7909C19.0658 13.4077 18.4587 13.1998 17.8338 13.1998C17.2089 13.1998 16.6017 13.4077 16.1081 13.7909C15.6145 14.1741 15.2624 14.7107 15.1074 15.316H9.30281C9.14781 14.7107 8.79574 14.1741 8.3021 13.7909C7.80846 13.4077 7.20133 13.1998 6.57643 13.1998C5.95152 13.1998 5.34439 13.4077 4.85075 13.7909C4.35711 14.1741 4.00504 14.7107 3.85004 15.316H2.35492V11.7981H22.0553V15.316Z" fill="#1B1815"/>
</svg>
