<svg width="24" height="24" viewBox="0 0 24 24" fill="none" xmlns="http://www.w3.org/2000/svg">
<path d="M12.205 4.05848C10.5351 4.05848 8.90274 4.55365 7.51429 5.48138C6.12585 6.40911 5.04368 7.72773 4.40465 9.27048C3.76562 10.8132 3.59842 12.5108 3.9242 14.1486C4.24997 15.7864 5.05409 17.2908 6.23487 18.4716C7.41564 19.6524 8.92004 20.4565 10.5578 20.7823C12.1956 21.108 13.8932 20.9408 15.436 20.3018C16.9787 19.6628 18.2973 18.5806 19.2251 17.1922C20.1528 15.8037 20.648 14.1714 20.648 12.5015C20.6454 10.263 19.7551 8.11702 18.1723 6.5342C16.5894 4.95139 14.4434 4.06104 12.205 4.05848ZM12.205 19.5373C10.8134 19.5373 9.45311 19.1247 8.29607 18.3516C7.13903 17.5785 6.23723 16.4796 5.70471 15.194C5.17218 13.9083 5.03285 12.4937 5.30433 11.1289C5.57581 9.76404 6.2459 8.51037 7.22988 7.52639C8.21386 6.54241 9.46753 5.87231 10.8323 5.60084C12.1972 5.32936 13.6118 5.46869 14.8975 6.00122C16.1831 6.53374 17.282 7.43554 18.0551 8.59258C18.8282 9.74962 19.2408 11.1099 19.2408 12.5015C19.2387 14.3669 18.4968 16.1552 17.1777 17.4743C15.8587 18.7933 14.0704 19.5352 12.205 19.5373ZM16.2207 8.48578C16.2861 8.55112 16.338 8.62872 16.3734 8.71413C16.4088 8.79955 16.427 8.8911 16.427 8.98356C16.427 9.07603 16.4088 9.16758 16.3734 9.25299C16.338 9.33841 16.2861 9.41601 16.2207 9.48135L12.7028 12.9993C12.6374 13.0646 12.5598 13.1165 12.4744 13.1519C12.389 13.1872 12.2974 13.2055 12.205 13.2055C12.1125 13.2055 12.021 13.1872 11.9356 13.1519C11.8502 13.1165 11.7726 13.0646 11.7072 12.9993C11.6418 12.9339 11.59 12.8563 11.5546 12.7709C11.5192 12.6855 11.501 12.5939 11.501 12.5015C11.501 12.409 11.5192 12.3175 11.5546 12.2321C11.59 12.1467 11.6418 12.0691 11.7072 12.0037L15.2251 8.48578C15.2905 8.42036 15.368 8.36847 15.4535 8.33306C15.5389 8.29765 15.6304 8.27943 15.7229 8.27943C15.8154 8.27943 15.9069 8.29765 15.9923 8.33306C16.0777 8.36847 16.1553 8.42036 16.2207 8.48578ZM9.39064 1.94772C9.39064 1.76112 9.46477 1.58216 9.59671 1.45022C9.72866 1.31827 9.90762 1.24414 10.0942 1.24414H14.3157C14.5023 1.24414 14.6813 1.31827 14.8132 1.45022C14.9452 1.58216 15.0193 1.76112 15.0193 1.94772C15.0193 2.13433 14.9452 2.31329 14.8132 2.44523C14.6813 2.57718 14.5023 2.65131 14.3157 2.65131H10.0942C9.90762 2.65131 9.72866 2.57718 9.59671 2.44523C9.46477 2.31329 9.39064 2.13433 9.39064 1.94772Z" fill="white"/>
</svg>
