<svg width="23" height="24" viewBox="0 0 23 24" fill="none" xmlns="http://www.w3.org/2000/svg">
<path d="M11.6149 2.65137C9.80583 2.65137 8.03743 3.18781 6.53328 4.19285C5.02913 5.19789 3.85679 6.62639 3.16451 8.29771C2.47222 9.96903 2.29109 11.8081 2.64402 13.5824C2.99694 15.3566 3.86807 16.9864 5.14724 18.2656C6.42641 19.5448 8.05618 20.4159 9.83045 20.7688C11.6047 21.1217 13.4438 20.9406 15.1151 20.2483C16.7864 19.556 18.2149 18.3837 19.22 16.8795C20.225 15.3754 20.7614 13.607 20.7614 11.798C20.7589 9.37292 19.7944 7.04793 18.0796 5.33317C16.3649 3.61841 14.0399 2.65393 11.6149 2.65137ZM11.6149 19.5374C10.0841 19.5374 8.58781 19.0835 7.31506 18.2331C6.04232 17.3826 5.05034 16.1739 4.46456 14.7597C3.87878 13.3455 3.72552 11.7894 4.02414 10.2881C4.32277 8.78677 5.05988 7.40774 6.14226 6.32536C7.22464 5.24298 8.60367 4.50587 10.105 4.20725C11.6063 3.90862 13.1624 4.06188 14.5766 4.64766C15.9908 5.23344 17.1995 6.22542 18.05 7.49817C18.9004 8.77091 19.3543 10.2672 19.3543 11.798C19.352 13.8499 18.5358 15.8171 17.0849 17.268C15.634 18.7189 13.6668 19.5351 11.6149 19.5374ZM14.3474 15.4689C14.2601 15.6338 14.111 15.7573 13.9327 15.8122C13.7544 15.8671 13.5616 15.849 13.3967 15.7618C12.8489 15.4673 12.2367 15.3132 11.6149 15.3132C10.993 15.3132 10.3808 15.4673 9.83303 15.7618C9.66857 15.8445 9.47825 15.8594 9.30291 15.8034C9.12756 15.7474 8.98115 15.6249 8.89507 15.4622C8.809 15.2994 8.79012 15.1095 8.84248 14.933C8.89485 14.7565 9.01429 14.6076 9.17518 14.5182C9.92692 14.1206 10.7644 13.9127 11.6149 13.9127C12.4653 13.9127 13.3028 14.1206 14.0545 14.5182C14.2194 14.6055 14.3429 14.7546 14.3978 14.9329C14.4527 15.1112 14.4346 15.304 14.3474 15.4689ZM17.1617 10.5438C17.1182 10.6254 17.0591 10.6976 16.9876 10.7563C16.9162 10.815 16.8339 10.859 16.7455 10.8859C16.657 10.9128 16.5641 10.9219 16.4721 10.9129C16.3801 10.9038 16.2908 10.8768 16.2093 10.8332C14.7964 10.0764 13.2185 9.68045 11.6157 9.68045C10.013 9.68045 8.43506 10.0764 7.02221 10.8332C6.85754 10.9211 6.66467 10.94 6.48605 10.8858C6.30742 10.8315 6.15767 10.7085 6.06974 10.5438C5.9818 10.3791 5.96288 10.1863 6.01715 10.0077C6.07141 9.82903 6.19441 9.67928 6.35908 9.59134C7.97609 8.72596 9.78173 8.27317 11.6157 8.27317C13.4497 8.27317 15.2554 8.72596 16.8724 9.59134C16.9541 9.63493 17.0264 9.69422 17.0852 9.76581C17.1439 9.83741 17.188 9.9199 17.2148 10.0086C17.2416 10.0972 17.2506 10.1903 17.2414 10.2824C17.2321 10.3746 17.2047 10.464 17.1609 10.5456L17.1617 10.5438ZM15.7546 13.0064C15.6668 13.171 15.5173 13.2941 15.3389 13.3485C15.1604 13.4029 14.9677 13.3843 14.803 13.2966C13.8221 12.7734 12.7275 12.4997 11.6157 12.4997C10.504 12.4997 9.40939 12.7734 8.4285 13.2966C8.26418 13.3805 8.07347 13.3965 7.89745 13.3412C7.72143 13.2859 7.57419 13.1636 7.48746 13.0007C7.40072 12.8379 7.38143 12.6475 7.43375 12.4705C7.48606 12.2936 7.60579 12.1443 7.76713 12.0548C8.95162 11.4231 10.2734 11.0927 11.6157 11.0927C12.9581 11.0927 14.2799 11.4231 15.4643 12.0548C15.546 12.0983 15.6183 12.1575 15.6771 12.229C15.7359 12.3005 15.7799 12.3829 15.8068 12.4714C15.8337 12.56 15.8428 12.653 15.8337 12.7451C15.8246 12.8372 15.7974 12.9266 15.7537 13.0081L15.7546 13.0064Z" fill="white"/>
</svg>
