<svg width="23" height="24" viewBox="0 0 23 24" fill="none" xmlns="http://www.w3.org/2000/svg">
<path d="M21.6033 15.5973L12.7874 8.98365L14.8507 7.43577C14.9382 7.37032 15.0093 7.28538 15.0583 7.18768C15.1073 7.08998 15.1329 6.9822 15.133 6.8729C15.133 5.93989 14.7624 5.04509 14.1026 4.38536C13.4429 3.72562 12.5481 3.35498 11.6151 3.35498C10.6821 3.35498 9.78728 3.72562 9.12754 4.38536C8.46781 5.04509 8.09717 5.93989 8.09717 6.8729C8.09717 7.0595 8.1713 7.23846 8.30324 7.37041C8.43519 7.50236 8.61415 7.57648 8.80075 7.57648C8.98735 7.57648 9.16631 7.50236 9.29826 7.37041C9.43021 7.23846 9.50434 7.0595 9.50434 6.8729C9.50576 6.34294 9.70648 5.83292 10.0666 5.44414C10.4268 5.05536 10.92 4.81629 11.4483 4.77442C11.9766 4.73254 12.5013 4.89093 12.9182 5.21812C13.3351 5.5453 13.6137 6.01734 13.6986 6.54046L11.2053 8.41111L11.1806 8.42958L1.62684 15.5973C1.39074 15.7744 1.2163 16.0212 1.12817 16.3029C1.04004 16.5845 1.0427 16.8868 1.13576 17.1668C1.22882 17.4469 1.40758 17.6906 1.64674 17.8635C1.88591 18.0364 2.17338 18.1297 2.4685 18.1302H20.7617C21.057 18.1302 21.3449 18.0373 21.5845 17.8646C21.8241 17.6919 22.0032 17.4482 22.0966 17.1681C22.19 16.8879 22.1929 16.5854 22.1048 16.3035C22.0168 16.0216 21.8423 15.7745 21.606 15.5973H21.6033ZM20.7617 16.7231H2.4685L11.6151 9.86313L20.7617 16.7231Z" fill="#1B1815"/>
</svg>
