<svg width="24" height="24" viewBox="0 0 24 24" fill="none" xmlns="http://www.w3.org/2000/svg">
<path d="M17.0679 3.32422H7.21771C6.84451 3.32422 6.48659 3.47247 6.2227 3.73637C5.9588 4.00026 5.81055 4.35818 5.81055 4.73139V20.2102C5.81061 20.3358 5.84427 20.4591 5.90804 20.5672C5.97182 20.6754 6.06337 20.7645 6.17321 20.8254C6.28305 20.8862 6.40717 20.9165 6.53269 20.9132C6.65821 20.9099 6.78055 20.8731 6.88703 20.8065L12.1428 17.5217L17.3995 20.8065C17.5059 20.8728 17.6282 20.9095 17.7536 20.9127C17.8789 20.9159 18.0029 20.8855 18.1126 20.8247C18.2223 20.7639 18.3138 20.6748 18.3775 20.5668C18.4412 20.4588 18.4749 20.3357 18.4751 20.2102V4.73139C18.4751 4.35818 18.3268 4.00026 18.0629 3.73637C17.799 3.47247 17.4411 3.32422 17.0679 3.32422ZM17.0679 18.9411L12.5148 16.096C12.403 16.0261 12.2738 15.9891 12.1419 15.9891C12.0101 15.9891 11.8808 16.0261 11.769 16.096L7.21771 18.9411V4.73139H17.0679V18.9411Z" fill="black"/>
</svg>
