<svg width="23" height="23" viewBox="0 0 23 23" fill="none" xmlns="http://www.w3.org/2000/svg">
<path d="M16.4773 2.86963H6.62714C6.25393 2.86963 5.89602 3.01788 5.63212 3.28178C5.36823 3.54567 5.21997 3.90359 5.21997 4.2768V19.7556C5.22003 19.8812 5.2537 20.0045 5.31747 20.1126C5.38124 20.2208 5.47279 20.3099 5.58263 20.3708C5.69247 20.4316 5.81659 20.4619 5.94211 20.4586C6.06763 20.4553 6.18998 20.4185 6.29645 20.3519L11.5522 17.0671L16.8089 20.3519C16.9153 20.4183 17.0376 20.4549 17.163 20.4581C17.2884 20.4613 17.4123 20.4309 17.522 20.3701C17.6317 20.3093 17.7232 20.2202 17.7869 20.1122C17.8506 20.0042 17.8843 19.8811 17.8845 19.7556V4.2768C17.8845 3.90359 17.7362 3.54567 17.4723 3.28178C17.2084 3.01788 16.8505 2.86963 16.4773 2.86963ZM16.4773 18.4866L11.9242 15.6414C11.8124 15.5715 11.6832 15.5345 11.5513 15.5345C11.4195 15.5345 11.2903 15.5715 11.1784 15.6414L6.62714 18.4866V4.2768H16.4773V18.4866Z" fill="white"/>
</svg>
