<svg width="24" height="23" viewBox="0 0 24 23" fill="none" xmlns="http://www.w3.org/2000/svg">
<path d="M19.9446 3.51318H4.46576C4.09256 3.51318 3.73464 3.66144 3.47074 3.92533C3.20685 4.18923 3.05859 4.54715 3.05859 4.92035V17.5849C3.05859 17.9581 3.20685 18.316 3.47074 18.5799C3.73464 18.8438 4.09256 18.992 4.46576 18.992H19.9446C20.3178 18.992 20.6757 18.8438 20.9396 18.5799C21.2035 18.316 21.3518 17.9581 21.3518 17.5849V4.92035C21.3518 4.54715 21.2035 4.18923 20.9396 3.92533C20.6757 3.66144 20.3178 3.51318 19.9446 3.51318ZM14.6677 7.73469C14.8765 7.73469 15.0805 7.79658 15.2541 7.91255C15.4276 8.02852 15.5629 8.19334 15.6428 8.38619C15.7226 8.57903 15.7435 8.79123 15.7028 8.99596C15.6621 9.20068 15.5616 9.38873 15.414 9.53633C15.2664 9.68392 15.0783 9.78444 14.8736 9.82516C14.6689 9.86588 14.4567 9.84498 14.2639 9.7651C14.071 9.68522 13.9062 9.54995 13.7902 9.3764C13.6742 9.20284 13.6124 8.9988 13.6124 8.79006C13.6124 8.51016 13.7235 8.24172 13.9215 8.0438C14.1194 7.84588 14.3878 7.73469 14.6677 7.73469ZM4.46576 17.5849V15.1223L9.03906 10.549L16.0749 17.5849H4.46576ZM19.9446 17.5849H18.0652L14.899 14.4187L16.658 12.6598L19.9446 15.9473V17.5849Z" fill="#1B1815"/>
</svg>
