<svg width="18" height="18" viewBox="0 0 18 18" fill="none" xmlns="http://www.w3.org/2000/svg">
<path d="M15.8394 8.99965C15.8394 9.25066 15.7397 9.49139 15.5622 9.66888C15.3847 9.84637 15.144 9.94608 14.893 9.94608H9.94657V14.8925C9.94657 15.1435 9.84686 15.3842 9.66937 15.5617C9.49188 15.7392 9.25115 15.8389 9.00014 15.8389C8.74913 15.8389 8.5084 15.7392 8.33091 15.5617C8.15342 15.3842 8.05371 15.1435 8.05371 14.8925V9.94608H3.10728C2.85627 9.94608 2.61555 9.84637 2.43806 9.66888C2.26057 9.49139 2.16085 9.25066 2.16085 8.99965C2.16085 8.74864 2.26057 8.50792 2.43806 8.33043M15.8394 8.99965L2.43806 8.33043M15.8394 8.99965C15.8394 8.74864 15.7397 8.50792 15.5622 8.33043C15.3847 8.15294 15.144 8.05322 14.893 8.05322H9.94657M15.8394 8.99965L9.94657 8.05322M2.43806 8.33043C2.61555 8.15294 2.85627 8.05322 3.10728 8.05322H8.05371V3.10679C8.05371 2.85579 8.15342 2.61506 8.33091 2.43757C8.5084 2.26008 8.74913 2.16037 9.00014 2.16037C9.25115 2.16037 9.49188 2.26008 9.66937 2.43757C9.84686 2.61506 9.94657 2.85579 9.94657 3.10679V8.05322M2.43806 8.33043L9.94657 8.05322" fill="white" stroke="white" stroke-width="0.285714"/>
</svg>
