<svg width="23" height="23" viewBox="0 0 23 23" fill="none" xmlns="http://www.w3.org/2000/svg">
<path d="M18.0094 5.68405V14.8306C18.0094 15.0172 17.9353 15.1962 17.8033 15.3282C17.6714 15.4601 17.4924 15.5342 17.3058 15.5342C17.1192 15.5342 16.9402 15.4601 16.8083 15.3282C16.6763 15.1962 16.6022 15.0172 16.6022 14.8306V7.38233L6.54624 17.4392C6.41422 17.5712 6.23516 17.6454 6.04846 17.6454C5.86175 17.6454 5.68269 17.5712 5.55067 17.4392C5.41865 17.3072 5.34448 17.1281 5.34448 16.9414C5.34448 16.7547 5.41865 16.5756 5.55067 16.4436L15.6075 6.38764H8.15921C7.97261 6.38764 7.79365 6.31351 7.6617 6.18156C7.52975 6.04961 7.45563 5.87065 7.45563 5.68405C7.45563 5.49745 7.52975 5.31849 7.6617 5.18654C7.79365 5.0546 7.97261 4.98047 8.15921 4.98047H17.3058C17.4924 4.98047 17.6714 5.0546 17.8033 5.18654C17.9353 5.31849 18.0094 5.49745 18.0094 5.68405Z" fill="white"/>
</svg>
