<svg width="23" height="24" viewBox="0 0 23 24" fill="none" xmlns="http://www.w3.org/2000/svg">
<path d="M17.6004 6.13864V15.2852C17.6004 15.4718 17.5263 15.6508 17.3944 15.7827C17.2624 15.9147 17.0835 15.9888 16.8969 15.9888C16.7103 15.9888 16.5313 15.9147 16.3994 15.7827C16.2674 15.6508 16.1933 15.4718 16.1933 15.2852V7.83692L6.13731 17.8938C6.00529 18.0258 5.82623 18.1 5.63952 18.1C5.45282 18.1 5.27376 18.0258 5.14174 17.8938C5.00972 17.7617 4.93555 17.5827 4.93555 17.396C4.93555 17.2093 5.00972 17.0302 5.14174 16.8982L15.1986 6.84223H7.75027C7.56367 6.84223 7.38471 6.7681 7.25276 6.63615C7.12082 6.5042 7.04669 6.32524 7.04669 6.13864C7.04669 5.95204 7.12082 5.77308 7.25276 5.64113C7.38471 5.50919 7.56367 5.43506 7.75027 5.43506H16.8969C17.0835 5.43506 17.2624 5.50919 17.3944 5.64113C17.5263 5.77308 17.6004 5.95204 17.6004 6.13864Z" fill="black"/>
</svg>
