<svg width="24" height="23" viewBox="0 0 24 23" fill="none" xmlns="http://www.w3.org/2000/svg">
<path d="M12.2052 2.19629C10.3962 2.19629 8.62776 2.73273 7.12362 3.73777C5.61947 4.74281 4.44712 6.17131 3.75484 7.84263C3.06256 9.51395 2.88142 11.353 3.23435 13.1273C3.58727 14.9016 4.4584 16.5313 5.73757 17.8105C7.01675 19.0897 8.64651 19.9608 10.4208 20.3137C12.195 20.6666 14.0341 20.4855 15.7054 19.7932C17.3768 19.1009 18.8053 17.9286 19.8103 16.4245C20.8153 14.9203 21.3518 13.1519 21.3518 11.3429C21.3492 8.91784 20.3847 6.59286 18.67 4.87809C16.9552 3.16333 14.6302 2.19885 12.2052 2.19629ZM12.2052 19.0823C10.6745 19.0823 9.17814 18.6284 7.9054 17.778C6.63265 16.9276 5.64067 15.7188 5.05489 14.3046C4.46912 12.8904 4.31585 11.3343 4.61448 9.83299C4.9131 8.33169 5.65021 6.95266 6.73259 5.87028C7.81497 4.7879 9.194 4.0508 10.6953 3.75217C12.1966 3.45354 13.7527 3.60681 15.1669 4.19259C16.5811 4.77836 17.7899 5.77035 18.6403 7.04309C19.4907 8.31583 19.9446 9.81217 19.9446 11.3429C19.9423 13.3948 19.1261 15.362 17.6752 16.8129C16.2243 18.2638 14.2571 19.08 12.2052 19.0823ZM14.9377 15.0138C14.8505 15.1787 14.7013 15.3022 14.523 15.3571C14.3447 15.412 14.1519 15.3939 13.987 15.3067C13.4393 15.0123 12.8271 14.8581 12.2052 14.8581C11.5833 14.8581 10.9711 15.0123 10.4234 15.3067C10.2589 15.3894 10.0686 15.4043 9.89324 15.3483C9.71789 15.2923 9.57148 15.1698 9.4854 15.0071C9.39933 14.8444 9.38045 14.6544 9.43282 14.4779C9.48518 14.3015 9.60462 14.1525 9.76551 14.0631C10.5172 13.6655 11.3548 13.4576 12.2052 13.4576C13.0556 13.4576 13.8931 13.6655 14.6449 14.0631C14.8097 14.1504 14.9332 14.2996 14.9881 14.4778C15.0431 14.6561 15.0249 14.8489 14.9377 15.0138ZM17.7521 10.0887C17.7086 10.1703 17.6494 10.2425 17.578 10.3012C17.5065 10.3599 17.4243 10.4039 17.3358 10.4308C17.2473 10.4577 17.1545 10.4669 17.0624 10.4578C16.9704 10.4488 16.8811 10.4217 16.7996 10.3781C15.3867 9.62134 13.8088 9.22537 12.2061 9.22537C10.6033 9.22537 9.02539 9.62134 7.61255 10.3781C7.44787 10.466 7.255 10.4849 7.07638 10.4307C6.89776 10.3764 6.748 10.2534 6.66007 10.0887C6.57213 9.92407 6.55322 9.7312 6.60748 9.55258C6.66174 9.37395 6.78474 9.2242 6.94942 9.13627C8.56642 8.27088 10.3721 7.81809 12.2061 7.81809C14.0401 7.81809 15.8457 8.27088 17.4627 9.13627C17.5444 9.17985 17.6168 9.23914 17.6755 9.31074C17.7343 9.38233 17.7783 9.46482 17.8051 9.55348C17.8319 9.64214 17.8409 9.73521 17.8317 9.82737C17.8224 9.91952 17.7951 10.0089 17.7512 10.0905L17.7521 10.0887ZM16.3449 12.5513C16.2572 12.7159 16.1076 12.839 15.9292 12.8934C15.7507 12.9479 15.558 12.9292 15.3933 12.8415C14.4124 12.3183 13.3178 12.0446 12.2061 12.0446C11.0943 12.0446 9.99973 12.3183 9.01883 12.8415C8.85451 12.9254 8.6638 12.9415 8.48778 12.8861C8.31176 12.8308 8.16452 12.7085 8.07779 12.5457C7.99105 12.3828 7.97177 12.1924 8.02408 12.0155C8.07639 11.8385 8.19612 11.6892 8.35746 11.5997C9.54195 10.9681 10.8637 10.6377 12.2061 10.6377C13.5484 10.6377 14.8702 10.9681 16.0547 11.5997C16.1364 11.6432 16.2087 11.7024 16.2674 11.7739C16.3262 11.8454 16.3703 11.9278 16.3972 12.0163C16.424 12.1049 16.4332 12.1979 16.4241 12.29C16.4149 12.3821 16.3877 12.4715 16.344 12.553L16.3449 12.5513Z" fill="#1B1815"/>
</svg>
