<svg width="24" height="23" viewBox="0 0 24 23" fill="none" xmlns="http://www.w3.org/2000/svg">
<path d="M18.3573 3.60352C18.1707 3.60352 17.9917 3.67764 17.8598 3.80959C17.7278 3.94154 17.6537 4.1205 17.6537 4.3071C17.6537 4.4937 17.7278 4.67266 17.8598 4.80461C17.9917 4.93656 18.1707 5.01068 18.3573 5.01068C18.7305 5.01068 19.0884 5.15894 19.3523 5.42283C19.6162 5.68673 19.7644 6.04465 19.7644 6.41785V11.3429H4.28559V6.41785C4.28559 6.04465 4.43384 5.68673 4.69774 5.42283C4.96163 5.15894 5.31955 5.01068 5.69275 5.01068C5.87936 5.01068 6.05831 4.93656 6.19026 4.80461C6.32221 4.67266 6.39634 4.4937 6.39634 4.3071C6.39634 4.1205 6.32221 3.94154 6.19026 3.80959C6.05831 3.67764 5.87936 3.60352 5.69275 3.60352C4.94635 3.60352 4.23051 3.90002 3.70272 4.42782C3.17493 4.95561 2.87842 5.67144 2.87842 6.41785V14.5091C2.87842 15.5354 3.28612 16.5197 4.01183 17.2454C4.73754 17.9711 5.72182 18.3788 6.74813 18.3788C7.77444 18.3788 8.75872 17.9711 9.48443 17.2454C10.2101 16.5197 10.6178 15.5354 10.6178 14.5091V12.7501H13.4322V14.5091C13.4322 15.5354 13.8399 16.5197 14.5656 17.2454C15.2913 17.9711 16.2756 18.3788 17.3019 18.3788C18.3282 18.3788 19.3125 17.9711 20.0382 17.2454C20.7639 16.5197 21.1716 15.5354 21.1716 14.5091V6.41785C21.1716 5.67144 20.8751 4.95561 20.3473 4.42782C19.8195 3.90002 19.1037 3.60352 18.3573 3.60352ZM9.00487 16.0622C8.93953 16.1276 8.86193 16.1795 8.77652 16.2149C8.69111 16.2504 8.59955 16.2686 8.50709 16.2686C8.41463 16.2686 8.32307 16.2504 8.23766 16.2149C8.15224 16.1795 8.07465 16.1276 8.0093 16.0622L5.89855 13.9515C5.76653 13.8195 5.69236 13.6404 5.69236 13.4537C5.69236 13.267 5.76653 13.0879 5.89855 12.9559C6.03057 12.8239 6.20963 12.7497 6.39634 12.7497C6.58304 12.7497 6.7621 12.8239 6.89412 12.9559L9.00487 15.0667C9.07029 15.132 9.12219 15.2096 9.15759 15.295C9.193 15.3804 9.21123 15.472 9.21123 15.5644C9.21123 15.6569 9.193 15.7485 9.15759 15.8339C9.12219 15.9193 9.07029 15.9969 9.00487 16.0622ZM19.5586 16.0622C19.4933 16.1276 19.4157 16.1795 19.3303 16.2149C19.2449 16.2504 19.1533 16.2686 19.0608 16.2686C18.9684 16.2686 18.8768 16.2504 18.7914 16.2149C18.706 16.1795 18.6284 16.1276 18.5631 16.0622L16.4523 13.9515C16.3203 13.8195 16.2461 13.6404 16.2461 13.4537C16.2461 13.267 16.3203 13.0879 16.4523 12.9559C16.5843 12.8239 16.7634 12.7497 16.9501 12.7497C17.1368 12.7497 17.3159 12.8239 17.4479 12.9559L19.5586 15.0667C19.624 15.132 19.6759 15.2096 19.7114 15.295C19.7468 15.3804 19.765 15.472 19.765 15.5644C19.765 15.6569 19.7468 15.7485 19.7114 15.8339C19.6759 15.9193 19.624 15.9969 19.5586 16.0622Z" fill="#1B1815"/>
</svg>
