<svg width="20" height="21" viewBox="0 0 20 21" fill="none" xmlns="http://www.w3.org/2000/svg">
<path d="M13.75 2.15723H6.25C5.09006 2.15847 3.97798 2.6198 3.15778 3.44C2.33758 4.26021 1.87624 5.37229 1.875 6.53223V14.0322C1.87624 15.1922 2.33758 16.3042 3.15778 17.1244C3.97798 17.9447 5.09006 18.406 6.25 18.4072H13.75C14.9099 18.406 16.022 17.9447 16.8422 17.1244C17.6624 16.3042 18.1238 15.1922 18.125 14.0322V6.53223C18.1238 5.37229 17.6624 4.26021 16.8422 3.44C16.022 2.6198 14.9099 2.15847 13.75 2.15723ZM10 14.0322C9.25832 14.0322 8.5333 13.8123 7.91661 13.4002C7.29993 12.9882 6.81928 12.4025 6.53545 11.7173C6.25162 11.0321 6.17736 10.2781 6.32206 9.55064C6.46675 8.82321 6.8239 8.15502 7.34835 7.63058C7.8728 7.10613 8.54098 6.74898 9.26841 6.60428C9.99584 6.45959 10.7498 6.53385 11.4351 6.81768C12.1203 7.10151 12.706 7.58215 13.118 8.19884C13.5301 8.81552 13.75 9.54055 13.75 10.2822C13.749 11.2765 13.3535 12.2297 12.6505 12.9327C11.9475 13.6358 10.9942 14.0312 10 14.0322ZM14.6875 6.53223C14.5021 6.53223 14.3208 6.47724 14.1667 6.37423C14.0125 6.27122 13.8923 6.1248 13.8214 5.95349C13.7504 5.78219 13.7318 5.59369 13.768 5.41183C13.8042 5.22997 13.8935 5.06293 14.0246 4.93181C14.1557 4.8007 14.3227 4.71141 14.5046 4.67524C14.6865 4.63907 14.875 4.65763 15.0463 4.72859C15.2176 4.79955 15.364 4.91971 15.467 5.07388C15.57 5.22805 15.625 5.40931 15.625 5.59473C15.625 5.84337 15.5262 6.08182 15.3504 6.25764C15.1746 6.43345 14.9361 6.53223 14.6875 6.53223ZM12.5 10.2822C12.5 10.7767 12.3534 11.26 12.0787 11.6712C11.804 12.0823 11.4135 12.4027 10.9567 12.5919C10.4999 12.7811 9.99723 12.8307 9.51227 12.7342C9.02732 12.6377 8.58186 12.3996 8.23223 12.05C7.8826 11.7004 7.6445 11.2549 7.54804 10.77C7.45157 10.285 7.50108 9.78233 7.6903 9.32552C7.87952 8.8687 8.19995 8.47826 8.61107 8.20355C9.0222 7.92885 9.50555 7.78223 10 7.78223C10.663 7.78223 11.2989 8.04562 11.7678 8.51446C12.2366 8.9833 12.5 9.61919 12.5 10.2822Z" fill="white"/>
</svg>
