<svg width="35" height="26" viewBox="0 0 35 26" fill="none" xmlns="http://www.w3.org/2000/svg">
<path d="M23.0268 3.2336L19.3712 6.87728C18.9517 7.29541 18.9517 7.95247 19.3712 8.37059L21.5526 10.5449C21.9721 10.963 22.6313 10.963 23.0508 10.5449L26.1311 7.46266C26.8023 6.79365 27.941 7.27151 27.941 8.20334V17.5933C27.941 18.5371 26.8023 19.003 26.1311 18.334L17.0939 9.32631L11.1729 3.4128C7.43334 -0.31451 1.04492 2.32567 1.04492 7.59407V18.5848C1.04492 23.8532 7.43334 26.4934 11.1729 22.7661L14.8286 19.1224C15.2481 18.7043 15.2481 18.0473 14.8286 17.6291L12.6471 15.4549C12.2276 15.0367 11.5684 15.0367 11.1489 15.4549L8.06858 18.5371C7.39738 19.2061 6.25873 18.7282 6.25873 17.7964V8.40643C6.25873 7.46266 7.39738 6.99675 8.06858 7.66575L17.1059 16.6734L23.0268 22.5869C26.7664 26.3142 33.1548 23.6741 33.1548 18.4056V7.41487C33.1548 2.14647 26.7664 -0.493708 23.0268 3.2336Z" stroke="white"/>
</svg>
