<svg width="33" height="33" viewBox="0 0 33 33" fill="none" xmlns="http://www.w3.org/2000/svg">
<path d="M3.07137 23.9163C2.36611 22.4827 2.01462 20.9009 2.04634 19.3035C2.07806 17.7062 2.49206 16.1396 3.25367 14.7351C4.01528 13.3306 5.10233 12.1291 6.42379 11.2311C7.74524 10.3331 9.26263 9.76478 10.8489 9.57378C11.3749 8.34743 12.1411 7.23878 13.1023 6.31314C14.0635 5.3875 15.2002 4.6636 16.4455 4.18408C17.6908 3.70456 19.0194 3.47912 20.3532 3.52105C21.687 3.56298 22.9988 3.87143 24.2115 4.42823C25.4243 4.98503 26.5133 5.77891 27.4144 6.76309C28.3155 7.74728 29.0106 8.90187 29.4586 10.1588C29.9066 11.4158 30.0985 12.7497 30.023 14.082C29.9474 15.4143 29.606 16.718 29.0189 17.9163L29.9764 21.2688C30.0618 21.5687 30.0656 21.886 29.9872 22.1879C29.9089 22.4897 29.7513 22.7652 29.5308 22.9857C29.3103 23.2062 29.0348 23.3638 28.733 23.4421C28.4311 23.5205 28.1138 23.5167 27.8139 23.4313L24.4614 22.4738C23.4497 22.9705 22.3615 23.2929 21.2426 23.4275C20.7093 24.6771 19.9268 25.805 18.9431 26.7422C17.9594 27.6793 16.795 28.4062 15.521 28.8785C14.247 29.3507 12.8902 29.5584 11.5333 29.4888C10.1764 29.4192 8.84787 29.0738 7.62887 28.4738L4.27637 29.4313C3.97645 29.5167 3.65914 29.5205 3.35728 29.4421C3.05543 29.3638 2.77999 29.2062 2.55947 28.9857C2.33896 28.7652 2.18137 28.4897 2.10303 28.1879C2.02469 27.886 2.02843 27.5687 2.11387 27.2688L3.07137 23.9163ZM24.3539 20.4038C24.4468 20.4038 24.5393 20.4164 24.6289 20.4413L27.9301 21.385L26.9864 18.0838C26.9156 17.8323 26.9462 17.5631 27.0714 17.3338C27.9909 15.6457 28.2712 13.6828 27.8612 11.8048C27.4511 9.92679 26.378 8.25944 24.8386 7.10827C23.2991 5.95711 21.3964 5.39923 19.4791 5.53686C17.5618 5.67449 15.7582 6.49842 14.399 7.85766C13.0398 9.2169 12.2158 11.0204 12.0782 12.9377C11.9406 14.8551 12.4985 16.7578 13.6496 18.2972C14.8008 19.8367 16.4681 20.9098 18.3461 21.3198C20.2242 21.7299 22.187 21.4495 23.8751 20.53C24.0215 20.4482 24.1862 20.4047 24.3539 20.4038ZM5.10387 24.0838L4.16012 27.385L7.46137 26.4413C7.71288 26.3706 7.98207 26.4011 8.21137 26.5263C10.0548 27.5292 12.2182 27.7683 14.2361 27.1923C16.254 26.6163 17.9652 25.2711 19.0014 23.4463C17.6321 23.3037 16.307 22.8796 15.1093 22.2007C13.9116 21.5218 12.8672 20.6027 12.0415 19.5011C11.2158 18.3994 10.6267 17.1391 10.3111 15.799C9.99551 14.4589 9.96029 13.0681 10.2076 11.7138C9.00935 11.9962 7.89241 12.5513 6.94378 13.336C5.99514 14.1206 5.2404 15.1137 4.7383 16.2377C4.2362 17.3618 4.00031 18.5866 4.04897 19.8167C4.09764 21.0468 4.42955 22.2491 5.01887 23.33C5.14509 23.5604 5.17563 23.8311 5.10387 24.0838Z" fill="white"/>
</svg>
