<svg width="20" height="21" viewBox="0 0 20 21" fill="none" xmlns="http://www.w3.org/2000/svg">
<path d="M18.125 6.53223V9.65723C18.125 9.82299 18.0592 9.98196 17.9419 10.0992C17.8247 10.2164 17.6658 10.2822 17.5 10.2822C16.1944 10.2853 14.9075 9.97132 13.75 9.36738V12.4697C13.75 14.0445 13.1244 15.5547 12.0109 16.6682C10.8974 17.7817 9.38722 18.4072 7.8125 18.4072C6.23778 18.4072 4.72755 17.7817 3.61405 16.6682C2.50056 15.5547 1.875 14.0445 1.875 12.4697C1.875 9.58692 3.97734 7.03848 6.76562 6.5416C6.85558 6.52561 6.94794 6.52954 7.03621 6.5531C7.12447 6.57667 7.2065 6.6193 7.27652 6.67799C7.34653 6.73668 7.40283 6.81001 7.44144 6.89281C7.48005 6.97561 7.50004 7.06587 7.5 7.15723V10.4924C7.50004 10.6107 7.46651 10.7265 7.40331 10.8265C7.34011 10.9265 7.24983 11.0065 7.14297 11.0572C6.89034 11.177 6.67449 11.3624 6.51793 11.5941C6.36137 11.8257 6.26983 12.0952 6.25288 12.3742C6.23592 12.6533 6.29416 12.9318 6.42152 13.1807C6.54888 13.4297 6.74069 13.6398 6.97695 13.7893C7.21322 13.9389 7.48527 14.0222 7.76474 14.0308C8.0442 14.0393 8.32084 13.9727 8.5658 13.8379C8.81076 13.7031 9.01506 13.5051 9.15739 13.2644C9.29972 13.0238 9.37487 12.7493 9.375 12.4697V2.15723C9.375 1.99147 9.44085 1.8325 9.55806 1.71528C9.67527 1.59807 9.83424 1.53223 10 1.53223H13.125C13.2908 1.53223 13.4497 1.59807 13.5669 1.71528C13.6842 1.8325 13.75 1.99147 13.75 2.15723C13.751 3.15147 14.1465 4.1047 14.8495 4.80774C15.5525 5.51077 16.5058 5.90619 17.5 5.90723C17.6658 5.90723 17.8247 5.97307 17.9419 6.09029C18.0592 6.2075 18.125 6.36647 18.125 6.53223Z" fill="white"/>
</svg>
