<svg width="119" height="20" viewBox="0 0 119 20" fill="none" xmlns="http://www.w3.org/2000/svg">
<path d="M90.2577 2.6667L87.4216 5.50281C87.0961 5.82827 87.0961 6.3397 87.4216 6.66515L89.114 8.35752C89.4394 8.68297 89.9508 8.68297 90.2763 8.35752L92.6661 5.95845C93.1868 5.43772 94.0702 5.80967 94.0702 6.53497V13.8438C94.0702 14.5784 93.1868 14.941 92.6661 14.4203L85.6548 7.40905L81.0613 2.80619C78.1601 -0.0950127 73.2039 1.96 73.2039 6.06073V14.6155C73.2039 18.7163 78.1601 20.7713 81.0613 17.8701L83.8974 15.034C84.2228 14.7085 84.2228 14.1971 83.8974 13.8717L82.205 12.1793C81.8796 11.8538 81.3681 11.8538 81.0427 12.1793L78.6529 14.5784C78.1322 15.0991 77.2488 14.7271 77.2488 14.0018V6.69305C77.2488 5.95845 78.1322 5.5958 78.6529 6.11653L85.6641 13.1278L90.2577 17.7306C93.1589 20.6318 98.1151 18.5768 98.1151 14.4761V5.92125C98.1151 1.82052 93.1589 -0.234493 90.2577 2.6667Z" stroke="white"/>
<path d="M0.478271 1.30957H6.82929L10.5395 13.0817L14.2218 1.30957H20.2845L13.4221 19.2468H7.27563L0.478271 1.30957Z" fill="white"/>
<path d="M21.4369 1.30957H27.3788V19.2468H21.4369V1.30957Z" fill="white"/>
<path d="M43.0849 2.40682C44.5541 3.14142 45.6886 4.18287 46.4883 5.54048C47.288 6.8981 47.6878 8.46958 47.6878 10.2642C47.6878 12.0589 47.2787 13.649 46.4604 14.9973C45.6421 16.3456 44.4797 17.387 42.9641 18.1309C41.4577 18.8748 39.7002 19.2468 37.701 19.2468H29.918V1.30957H37.9242C39.9048 1.30957 41.625 1.67222 43.0849 2.40682ZM40.6673 13.463C41.3089 12.6819 41.625 11.6311 41.625 10.3107C41.625 8.99031 41.281 7.91166 40.5836 7.11197C39.8955 6.31228 38.9656 5.91243 37.8033 5.91243H35.8598V14.6346H38.0822C39.1609 14.6346 40.0164 14.2441 40.658 13.4537L40.6673 13.463Z" fill="white"/>
<path d="M49.3615 1.30957H55.3033V14.3092H62.7795V19.2468H49.3708V1.30957H49.3615Z" fill="white"/>
<path d="M64.927 1.30957H70.8689V19.2468H64.927V1.30957Z" fill="white"/>
<path d="M119 19.2468H111.914L108.129 12.9981L106.437 14.895V19.2468H100.495V1.30957H106.437V7.86516L111.784 1.30957H118.618L112.193 8.47888L119 19.2561V19.2468Z" fill="white"/>
</svg>
