<svg width="21" height="21" viewBox="0 0 21 21" fill="none" xmlns="http://www.w3.org/2000/svg">
<path d="M18.6297 5.71348C18.556 5.42547 18.415 5.15909 18.2182 4.93632C18.0214 4.71354 17.7744 4.54076 17.4976 4.43223C14.8195 3.39785 10.557 3.40723 10.3226 3.40723C10.0883 3.40723 5.82576 3.39785 3.14763 4.43223C2.87088 4.54076 2.62391 4.71354 2.42708 4.93632C2.23025 5.15909 2.08921 5.42547 2.0156 5.71348C1.81326 6.49317 1.57263 7.91817 1.57263 10.2822C1.57263 12.6463 1.81326 14.0713 2.0156 14.851C2.0891 15.1391 2.23009 15.4057 2.42693 15.6286C2.62376 15.8515 2.87079 16.0244 3.14763 16.133C5.71326 17.1229 9.72888 17.1572 10.2711 17.1572H10.3742C10.9164 17.1572 14.9344 17.1229 17.4976 16.133C17.7745 16.0244 18.0215 15.8515 18.2183 15.6286C18.4152 15.4057 18.5562 15.1391 18.6297 14.851C18.832 14.0697 19.0726 12.6463 19.0726 10.2822C19.0726 7.91817 18.832 6.49317 18.6297 5.71348ZM12.9961 10.5424L9.24607 13.0424C9.199 13.0738 9.14428 13.0918 9.08775 13.0946C9.03123 13.0973 8.97503 13.0846 8.92514 13.0579C8.87525 13.0312 8.83355 12.9915 8.80449 12.9429C8.77543 12.8944 8.7601 12.8388 8.76013 12.7822V7.78223C8.7601 7.72564 8.77543 7.6701 8.80449 7.62155C8.83355 7.57299 8.87525 7.53323 8.92514 7.50652C8.97503 7.47982 9.03123 7.46715 9.08775 7.46989C9.14428 7.47263 9.199 7.49067 9.24607 7.52207L12.9961 10.0221C13.0389 10.0506 13.0741 10.0893 13.0984 10.1347C13.1227 10.18 13.1354 10.2307 13.1354 10.2822C13.1354 10.3337 13.1227 10.3844 13.0984 10.4298C13.0741 10.4752 13.0389 10.5139 12.9961 10.5424Z" fill="white"/>
</svg>
