<svg width="26" height="26" viewBox="0 0 26 26" fill="none" xmlns="http://www.w3.org/2000/svg">
<path d="M25.4062 13.4015C25.4061 16.3448 24.3674 19.1936 22.473 21.4462C20.5787 23.6988 17.9502 25.2107 15.0506 25.7156C12.151 26.2205 9.16621 25.6861 6.62195 24.2063C4.0777 22.7266 2.13719 20.3966 1.14219 17.6266C0.147196 14.8567 0.161544 11.8244 1.18271 9.06402C2.20387 6.30359 4.16635 3.99203 6.72449 2.53647C9.28263 1.08091 12.2724 0.574723 15.1671 1.10705C18.0618 1.63939 20.6758 3.1761 22.5487 5.44652C22.6742 5.59844 22.7684 5.77358 22.8262 5.96193C22.8839 6.15029 22.9039 6.34816 22.8852 6.54427C22.8665 6.74037 22.8093 6.93087 22.7169 7.10487C22.6245 7.27888 22.4988 7.43298 22.3469 7.5584C22.195 7.68381 22.0198 7.77807 21.8315 7.8358C21.6431 7.89352 21.4452 7.91359 21.2491 7.89484C21.053 7.8761 20.8625 7.81891 20.6885 7.72654C20.5145 7.63418 20.3604 7.50844 20.235 7.35652C18.8527 5.68084 16.9379 4.52948 14.8097 4.09433C12.6815 3.65918 10.4684 3.96653 8.53932 4.96515C6.61022 5.96376 5.08162 7.59333 4.20827 9.58228C3.33491 11.5712 3.16956 13.7994 3.73976 15.8955C4.30997 17.9915 5.58128 19.8289 7.34184 21.1013C9.1024 22.3738 11.2459 23.0044 13.415 22.8882C15.5841 22.7719 17.6479 21.9158 19.2624 20.4625C20.8769 19.0092 21.9446 17.0465 22.2875 14.9015H12.9062C12.5084 14.9015 12.1269 14.7435 11.8456 14.4622C11.5643 14.1809 11.4062 13.7993 11.4062 13.4015C11.4062 13.0037 11.5643 12.6222 11.8456 12.3409C12.1269 12.0596 12.5084 11.9015 12.9062 11.9015H23.9062C24.3041 11.9015 24.6856 12.0596 24.9669 12.3409C25.2482 12.6222 25.4062 13.0037 25.4062 13.4015Z" fill="white"/>
</svg>
