<svg width="19" height="18" viewBox="0 0 19 18" fill="none" xmlns="http://www.w3.org/2000/svg">
<path d="M16.2845 9.59689L11.222 14.6594C11.0634 14.8179 10.8485 14.907 10.6243 14.907C10.4001 14.907 10.1851 14.8179 10.0266 14.6594C9.86813 14.5009 9.77908 14.2859 9.77908 14.0617C9.77908 13.8376 9.86813 13.6226 10.0266 13.4641L13.6484 9.84369H3.3125C3.08872 9.84369 2.87411 9.7548 2.71588 9.59656C2.55764 9.43833 2.46875 9.22372 2.46875 8.99994C2.46875 8.77616 2.55764 8.56155 2.71588 8.40332C2.87411 8.24508 3.08872 8.15619 3.3125 8.15619H13.6484L10.028 4.53369C9.86954 4.37518 9.78049 4.1602 9.78049 3.93603C9.78049 3.71187 9.86954 3.49689 10.028 3.33838C10.1866 3.17987 10.4015 3.09082 10.6257 3.09082C10.8499 3.09082 11.0649 3.17987 11.2234 3.33838L16.2859 8.40088C16.3645 8.47937 16.4269 8.57263 16.4695 8.67531C16.512 8.77798 16.5338 8.88804 16.5337 8.99918C16.5335 9.11031 16.5115 9.22032 16.4687 9.3229C16.4259 9.42547 16.3633 9.51859 16.2845 9.59689Z" fill="black"/>
</svg>
