<svg width="81" height="81" viewBox="0 0 81 81" fill="none" xmlns="http://www.w3.org/2000/svg">
<path d="M54.9472 31.1154C55.1825 31.3505 55.3692 31.6297 55.4966 31.937C55.624 32.2442 55.6895 32.5736 55.6895 32.9063C55.6895 33.2389 55.624 33.5683 55.4966 33.8756C55.3692 34.1829 55.1825 34.4621 54.9472 34.6971L37.2284 52.4159C36.9933 52.6512 36.7141 52.838 36.4069 52.9653C36.0996 53.0927 35.7702 53.1583 35.4375 53.1583C35.1049 53.1583 34.7755 53.0927 34.4682 52.9653C34.1609 52.838 33.8818 52.6512 33.6467 52.4159L26.0529 44.8221C25.578 44.3472 25.3111 43.703 25.3111 43.0313C25.3111 42.3596 25.578 41.7154 26.0529 41.2404C26.5279 40.7655 27.1721 40.4986 27.8438 40.4986C28.5155 40.4986 29.1597 40.7655 29.6346 41.2404L35.4375 47.0465L51.3654 31.1154C51.6005 30.8801 51.8797 30.6934 52.187 30.566C52.4943 30.4386 52.8237 30.373 53.1563 30.373C53.489 30.373 53.8183 30.4386 54.1256 30.566C54.4329 30.6934 54.7121 30.8801 54.9472 31.1154ZM73.4063 40.5C73.4063 47.0083 71.4764 53.3704 67.8606 58.7818C64.2448 64.1932 59.1056 68.4109 53.0927 70.9015C47.0799 73.3921 40.4635 74.0437 34.0803 72.774C27.6972 71.5043 21.8338 68.3703 17.2318 63.7683C12.6298 59.1663 9.49575 53.3029 8.22605 46.9197C6.95635 40.5365 7.60801 33.9202 10.0986 27.9073C12.5892 21.8945 16.8069 16.7552 22.2183 13.1395C27.6297 9.52367 33.9918 7.59375 40.5 7.59375C49.2245 7.60296 57.589 11.0728 63.7581 17.242C69.9273 23.4111 73.3971 31.7756 73.4063 40.5ZM68.3438 40.5C68.3438 34.9931 66.7108 29.6097 63.6513 25.0309C60.5918 20.452 56.2432 16.8832 51.1554 14.7757C46.0676 12.6683 40.4692 12.1169 35.068 13.1913C29.6668 14.2656 24.7055 16.9175 20.8115 20.8115C16.9175 24.7055 14.2656 29.6668 13.1913 35.068C12.1169 40.4691 12.6683 46.0676 14.7758 51.1554C16.8832 56.2432 20.452 60.5918 25.0309 63.6513C29.6098 66.7108 34.9931 68.3438 40.5 68.3438C47.8821 68.3354 54.9594 65.3992 60.1793 60.1793C65.3992 54.9594 68.3354 47.8821 68.3438 40.5Z" fill="#0068FF"/>
</svg>
