<svg width="10" height="10" viewBox="0 0 10 10" fill="none" xmlns="http://www.w3.org/2000/svg">
<path d="M5 1.71875C4.25832 1.71875 3.5333 1.93868 2.91661 2.35074C2.29993 2.76279 1.81928 3.34846 1.53545 4.03369C1.25162 4.71891 1.17736 5.47291 1.32206 6.20034C1.46675 6.92777 1.8239 7.59595 2.34835 8.1204C2.8728 8.64485 3.54098 9.002 4.26841 9.14669C4.99584 9.29139 5.74984 9.21713 6.43506 8.9333C7.12029 8.64947 7.70596 8.16882 8.11801 7.55214C8.53007 6.93545 8.75 6.21043 8.75 5.46875C8.74886 4.47454 8.35341 3.52137 7.6504 2.81836C6.94738 2.11534 5.99421 1.71989 5 1.71875ZM5 8.28125C4.44374 8.28125 3.89997 8.1163 3.43746 7.80726C2.97495 7.49822 2.61446 7.05896 2.40159 6.54505C2.18872 6.03113 2.13302 5.46563 2.24154 4.92006C2.35006 4.37449 2.61793 3.87335 3.01126 3.48001C3.4046 3.08668 3.90574 2.81881 4.45131 2.71029C4.99688 2.60177 5.56238 2.65747 6.0763 2.87034C6.59022 3.08321 7.02947 3.4437 7.33851 3.90621C7.64755 4.36872 7.8125 4.91249 7.8125 5.46875C7.81167 6.21442 7.51509 6.92931 6.98783 7.45657C6.46056 7.98384 5.74567 8.28042 5 8.28125ZM6.42539 3.88711C6.46909 3.93066 6.50377 3.9824 6.52742 4.03938C6.55108 4.09636 6.56326 4.15745 6.56326 4.21914C6.56326 4.28083 6.55108 4.34192 6.52742 4.3989C6.50377 4.45588 6.46909 4.50762 6.42539 4.55117L5.33164 5.64492C5.24358 5.73298 5.12415 5.78245 4.99961 5.78245C4.87508 5.78245 4.75564 5.73298 4.66758 5.64492C4.57952 5.55686 4.53005 5.43743 4.53005 5.31289C4.53005 5.18835 4.57952 5.06892 4.66758 4.98086L5.76133 3.88711C5.80488 3.84341 5.85663 3.80874 5.9136 3.78508C5.97058 3.76142 6.03167 3.74924 6.09336 3.74924C6.15506 3.74924 6.21614 3.76142 6.27312 3.78508C6.3301 3.80874 6.38184 3.84341 6.42539 3.88711ZM3.59375 0.625C3.59375 0.50068 3.64314 0.381451 3.73105 0.293544C3.81895 0.205636 3.93818 0.15625 4.0625 0.15625H5.9375C6.06182 0.15625 6.18105 0.205636 6.26896 0.293544C6.35687 0.381451 6.40625 0.50068 6.40625 0.625C6.40625 0.74932 6.35687 0.868549 6.26896 0.956456C6.18105 1.04436 6.06182 1.09375 5.9375 1.09375H4.0625C3.93818 1.09375 3.81895 1.04436 3.73105 0.956456C3.64314 0.868549 3.59375 0.74932 3.59375 0.625Z" fill="white"/>
</svg>
