<svg width="11" height="10" viewBox="0 0 11 10" fill="none" xmlns="http://www.w3.org/2000/svg">
<path d="M5.5 1.5625C4.75832 1.5625 4.0333 1.78243 3.41661 2.19449C2.79993 2.60654 2.31928 3.19221 2.03545 3.87744C1.75162 4.56266 1.67736 5.31666 1.82206 6.04409C1.96675 6.77152 2.3239 7.4397 2.84835 7.96415C3.3728 8.4886 4.04098 8.84575 4.76841 8.99044C5.49584 9.13514 6.24984 9.06088 6.93506 8.77705C7.62029 8.49322 8.20596 8.01257 8.61801 7.39589C9.03007 6.7792 9.25 6.05418 9.25 5.3125C9.24886 4.31829 8.85341 3.36512 8.1504 2.66211C7.44738 1.95909 6.49421 1.56364 5.5 1.5625ZM7.2836 3.97109L5.7211 5.53359C5.69206 5.56263 5.65759 5.58566 5.61966 5.60137C5.58172 5.61709 5.54106 5.62517 5.5 5.62517C5.45894 5.62517 5.41828 5.61709 5.38035 5.60137C5.34241 5.58566 5.30794 5.56263 5.27891 5.53359C5.24987 5.50456 5.22684 5.47009 5.21113 5.43216C5.19542 5.39422 5.18733 5.35356 5.18733 5.3125C5.18733 5.27144 5.19542 5.23078 5.21113 5.19284C5.22684 5.15491 5.24987 5.12044 5.27891 5.09141L6.84141 3.52891C6.87044 3.49987 6.90491 3.47684 6.94285 3.46113C6.98078 3.44541 7.02144 3.43733 7.0625 3.43733C7.10356 3.43733 7.14422 3.44541 7.18216 3.46113C7.22009 3.47684 7.25456 3.49987 7.2836 3.52891C7.31263 3.55794 7.33566 3.59241 7.35137 3.63034C7.36709 3.66828 7.37518 3.70894 7.37518 3.75C7.37518 3.79106 7.36709 3.83172 7.35137 3.86966C7.33566 3.90759 7.31263 3.94206 7.2836 3.97109ZM4.25 0.625C4.25 0.54212 4.28293 0.462634 4.34153 0.404029C4.40014 0.345424 4.47962 0.3125 4.5625 0.3125H6.4375C6.52038 0.3125 6.59987 0.345424 6.65847 0.404029C6.71708 0.462634 6.75 0.54212 6.75 0.625C6.75 0.70788 6.71708 0.787366 6.65847 0.845971C6.59987 0.904576 6.52038 0.9375 6.4375 0.9375H4.5625C4.47962 0.9375 4.40014 0.904576 4.34153 0.845971C4.28293 0.787366 4.25 0.70788 4.25 0.625Z" fill="white"/>
</svg>
