<svg width="51" height="51" viewBox="0 0 51 51" fill="none" xmlns="http://www.w3.org/2000/svg">
<path d="M48.5276 21.7759C48.2353 21.3707 47.8509 21.0409 47.406 20.8137C46.9611 20.5864 46.4685 20.4683 45.969 20.469H42.8199V17.32C42.8199 16.4848 42.4881 15.6838 41.8976 15.0932C41.307 14.5027 40.506 14.1709 39.6708 14.1709H26.0255L20.5678 10.0771C20.0217 9.67003 19.3594 9.44923 18.6783 9.44727H8.18008C7.34489 9.44727 6.54391 9.77904 5.95335 10.3696C5.36278 10.9602 5.03101 11.7612 5.03101 12.5963V40.938C5.03101 41.3556 5.19689 41.7561 5.49218 42.0514C5.78746 42.3467 6.18795 42.5125 6.60554 42.5125H41.8555C42.186 42.5126 42.5081 42.4086 42.7762 42.2154C43.0443 42.0222 43.2448 41.7495 43.3493 41.436L48.9566 24.614C49.1143 24.1407 49.1577 23.6367 49.0831 23.1434C49.0085 22.6501 48.8181 22.1815 48.5276 21.7759ZM18.6783 12.5963L24.136 16.6901C24.6819 17.0974 25.3444 17.3183 26.0255 17.32H39.6708V20.469H29.1273C28.5052 20.469 27.8971 20.6532 27.3796 20.9985L23.4432 23.6181H13.9704C13.3405 23.6164 12.7246 23.8043 12.203 24.1574C11.6814 24.5106 11.2781 25.0126 11.0457 25.5981L8.18008 32.7622V12.5963H18.6783ZM40.7218 39.3635H8.93192L13.9704 26.7672H23.4492C24.0712 26.7672 24.6794 26.583 25.1969 26.2377L29.1332 23.6181H45.969L40.7218 39.3635Z" fill="white"/>
</svg>
