<svg width="24" height="24" viewBox="0 0 24 24" fill="none" xmlns="http://www.w3.org/2000/svg">
<path d="M19.5579 4.26074H4.07904C3.70584 4.26074 3.34792 4.409 3.08402 4.67289C2.82013 4.93679 2.67188 5.29471 2.67188 5.66791V18.3324C2.67188 18.7056 2.82013 19.0635 3.08402 19.3274C3.34792 19.5913 3.70584 19.7396 4.07904 19.7396H19.5579C19.9311 19.7396 20.289 19.5913 20.5529 19.3274C20.8168 19.0635 20.9651 18.7056 20.9651 18.3324V5.66791C20.9651 5.29471 20.8168 4.93679 20.5529 4.67289C20.289 4.409 19.9311 4.26074 19.5579 4.26074ZM14.281 8.48225C14.4897 8.48225 14.6938 8.54414 14.8673 8.66011C15.0409 8.77607 15.1762 8.9409 15.256 9.13375C15.3359 9.32659 15.3568 9.53879 15.3161 9.74351C15.2754 9.94824 15.1749 10.1363 15.0273 10.2839C14.8797 10.4315 14.6916 10.532 14.4869 10.5727C14.2822 10.6134 14.07 10.5925 13.8771 10.5127C13.6843 10.4328 13.5195 10.2975 13.4035 10.124C13.2875 9.9504 13.2256 9.74635 13.2256 9.53762C13.2256 9.25772 13.3368 8.98928 13.5347 8.79136C13.7327 8.59344 14.0011 8.48225 14.281 8.48225ZM4.07904 18.3324V15.8699L8.65234 11.2966L15.6882 18.3324H4.07904ZM19.5579 18.3324H17.6784L14.5123 15.1663L16.2713 13.4073L19.5579 16.6948V18.3324Z" fill="white"/>
</svg>
