<svg width="10" height="10" viewBox="0 0 10 10" fill="none" xmlns="http://www.w3.org/2000/svg">
<path d="M5.32687 7.32519C5.37057 7.36874 5.40525 7.42049 5.42891 7.47747C5.45256 7.53444 5.46474 7.59553 5.46474 7.65722C5.46474 7.71892 5.45256 7.78001 5.42891 7.83698C5.40525 7.89396 5.37057 7.94571 5.32687 7.98926L5.09484 8.22129C4.65516 8.66097 4.05883 8.90798 3.43703 8.90798C2.81523 8.90798 2.2189 8.66097 1.77922 8.22129C1.33954 7.78161 1.09253 7.18528 1.09253 6.56347C1.09253 5.94167 1.33954 5.34534 1.77922 4.90566L2.72141 3.96387C3.14386 3.54037 3.71226 3.29442 4.31016 3.27641C4.90807 3.2584 5.49024 3.46969 5.93742 3.86699C5.98359 3.90803 6.02122 3.95776 6.04817 4.01334C6.07512 4.06892 6.09086 4.12927 6.09448 4.19093C6.09811 4.2526 6.08956 4.31437 6.06931 4.37273C6.04906 4.43109 6.01752 4.48489 5.97648 4.53105C5.93545 4.57722 5.88572 4.61485 5.83013 4.6418C5.77455 4.66875 5.71421 4.68449 5.65254 4.68812C5.59088 4.69174 5.5291 4.68319 5.47075 4.66294C5.41239 4.6427 5.35859 4.61115 5.31242 4.57012C5.04426 4.33196 4.69525 4.20526 4.33676 4.21594C3.97828 4.22661 3.63742 4.37385 3.38391 4.62754L2.4425 5.56816C2.17873 5.83193 2.03055 6.18967 2.03055 6.56269C2.03055 6.93572 2.17873 7.29346 2.4425 7.55723C2.70627 7.82099 3.06401 7.96917 3.43703 7.96917C3.81005 7.96917 4.1678 7.82099 4.43156 7.55723L4.66359 7.32519C4.70713 7.28161 4.75882 7.24704 4.81573 7.22345C4.87264 7.19986 4.93363 7.18772 4.99523 7.18772C5.05683 7.18772 5.11783 7.19986 5.17474 7.22345C5.23164 7.24704 5.28334 7.28161 5.32687 7.32519ZM8.22062 1.77832C7.78059 1.33932 7.18439 1.09277 6.56281 1.09277C5.94124 1.09277 5.34504 1.33932 4.905 1.77832L4.67297 2.01035C4.58491 2.09841 4.53544 2.21785 4.53544 2.34238C4.53544 2.46692 4.58491 2.58635 4.67297 2.67441C4.76103 2.76247 4.88046 2.81194 5.005 2.81194C5.12953 2.81194 5.24897 2.76247 5.33703 2.67441L5.56906 2.44238C5.83283 2.17862 6.19057 2.03043 6.56359 2.03043C6.93661 2.03043 7.29436 2.17862 7.55812 2.44238C7.82189 2.70615 7.97007 3.06389 7.97007 3.43691C7.97007 3.80993 7.82189 4.16768 7.55812 4.43144L6.61633 5.37363C6.36259 5.62721 6.02154 5.77424 5.66297 5.78462C5.30439 5.79501 4.9554 5.66796 4.68742 5.42949C4.64125 5.38845 4.58745 5.35691 4.5291 5.33666C4.47074 5.31642 4.40896 5.30786 4.3473 5.31149C4.28564 5.31512 4.22529 5.33085 4.16971 5.3578C4.11413 5.38475 4.0644 5.42239 4.02336 5.46855C3.98232 5.51472 3.95078 5.56852 3.93053 5.62688C3.91028 5.68524 3.90173 5.74701 3.90536 5.80867C3.90898 5.87034 3.92472 5.93068 3.95167 5.98627C3.97862 6.04185 4.01625 6.09158 4.06242 6.13262C4.50929 6.52983 5.09107 6.74125 5.68869 6.7236C6.28632 6.70596 6.85461 6.46058 7.27726 6.03769L8.21945 5.0959C8.65897 4.65597 8.90595 4.0596 8.90617 3.43774C8.90639 2.81588 8.65983 2.21934 8.22062 1.7791V1.77832Z" fill="white"/>
</svg>
