<svg width="55" height="55" viewBox="0 0 55 55" fill="none" xmlns="http://www.w3.org/2000/svg">
<path d="M27.6457 0.308594C22.239 0.308594 16.9536 1.91189 12.458 4.91573C7.96247 7.91958 4.45861 12.1891 2.38952 17.1843C0.320439 22.1795 -0.220928 27.6761 0.833882 32.9789C1.88869 38.2818 4.4923 43.1528 8.31547 46.976C12.1386 50.7992 17.0096 53.4028 22.3125 54.4576C27.6154 55.5124 33.112 54.971 38.1072 52.902C43.1024 50.8329 47.3719 47.329 50.3757 42.8334C53.3796 38.3379 54.9829 33.0525 54.9829 27.6457C54.9738 20.3982 52.0908 13.4502 46.966 8.32544C41.8413 3.20069 34.8932 0.317636 27.6457 0.308594ZM37.2243 29.3964L24.6071 37.8078C24.2611 38.0371 23.8552 38.1596 23.44 38.16C22.8823 38.16 22.3474 37.9385 21.9531 37.5441C21.5587 37.1497 21.3372 36.6149 21.3372 36.0572V19.2343C21.3369 18.8535 21.4401 18.4798 21.6356 18.153C21.8312 17.8263 22.1118 17.5588 22.4475 17.379C22.7832 17.1993 23.1614 17.1141 23.5418 17.1325C23.9221 17.151 24.2904 17.2723 24.6071 17.4837L37.2243 25.8951C37.5127 26.0871 37.7492 26.3473 37.9129 26.6527C38.0765 26.9581 38.1621 27.2993 38.1621 27.6457C38.1621 27.9922 38.0765 28.3333 37.9129 28.6387C37.7492 28.9441 37.5127 29.2044 37.2243 29.3964Z" fill="black"/>
</svg>
