<svg width="357" height="56" viewBox="0 0 357 56" fill="none" xmlns="http://www.w3.org/2000/svg">
<path d="M270.536 5.08551L262.005 13.6172C261.026 14.5962 261.026 16.1347 262.005 17.1138L267.096 22.2048C268.075 23.1839 269.613 23.1839 270.592 22.2048L277.781 14.9879C279.348 13.4214 282.005 14.5403 282.005 16.7222V38.7087C282.005 40.9185 279.348 42.0095 277.781 40.443L256.69 19.3516L242.871 5.50511C234.144 -3.22238 219.234 2.95959 219.234 15.2956V41.0304C219.234 53.3664 234.144 59.5484 242.871 50.8209L251.403 42.2892C252.382 41.3102 252.382 39.7717 251.403 38.7926L246.312 33.7016C245.333 32.7225 243.794 32.7225 242.815 33.7016L235.626 40.9185C234.06 42.485 231.402 41.3661 231.402 39.1842V17.1977C231.402 14.9879 234.06 13.8969 235.626 15.4634L256.718 36.5548L270.536 50.4013C279.264 59.1288 294.173 52.9468 294.173 40.6108V14.876C294.173 2.54 279.264 -3.64197 270.536 5.08551Z" stroke="white" stroke-width="2"/>
<path d="M0.459961 1.00293H19.5653L30.7264 36.4164L41.8036 1.00293H60.0418L39.398 54.9623H20.908L0.459961 1.00293Z" fill="#0068FF"/>
<path d="M63.5104 1.00293H81.3849V54.9623H63.5104V1.00293Z" fill="#0068FF"/>
<path d="M128.631 4.30371C133.051 6.51355 136.463 9.64649 138.869 13.7305C141.275 17.8145 142.477 22.5419 142.477 27.9406C142.477 33.3394 141.247 38.1227 138.785 42.1787C136.323 46.2348 132.827 49.3677 128.267 51.6055C123.736 53.8434 118.449 54.9623 112.435 54.9623H89.0216V1.00293H113.106C119.064 1.00293 124.239 2.09386 128.631 4.30371ZM121.358 37.5632C123.288 35.2135 124.239 32.0526 124.239 28.0805C124.239 24.1084 123.204 20.8635 121.106 18.4579C119.036 16.0522 116.239 14.8494 112.742 14.8494H106.896V41.0878H113.582C116.826 41.0878 119.4 39.913 121.33 37.5353L121.358 37.5632Z" fill="#0068FF"/>
<path d="M147.512 1.00293H165.387V40.1088H187.877V54.9623H147.54V1.00293H147.512Z" fill="#0068FF"/>
<path d="M194.339 1.00293H212.213V54.9623H194.339V1.00293Z" fill="#0068FF"/>
<path d="M357 54.9623H335.685L324.3 36.1646L319.209 41.871V54.9623H301.334V1.00293H319.209V20.7237L335.293 1.00293H355.853L336.524 22.5699L357 54.9902V54.9623Z" fill="#0068FF"/>
</svg>
