<svg width="30" height="29" viewBox="0 0 30 29" fill="none" xmlns="http://www.w3.org/2000/svg">
<g clip-path="url(#clip0_782_16223)">
<path d="M15.197 0.150405C26.3452 0.13523 33.2468 12.3471 27.489 21.9464C21.8966 31.2688 8.18569 31.1171 2.78896 21.6821C-2.69868 12.0892 4.21041 0.16558 15.197 0.150405ZM10.3684 8.68495C9.47839 8.71783 8.9242 8.67483 8.1655 9.22492C7.4068 9.775 6.98768 10.6197 6.9334 11.5846C6.82609 13.5067 7.01672 15.5288 6.93466 17.4598C7.04196 19.1227 8.19706 20.2443 9.84953 20.3455C13.3514 20.2317 16.9505 20.4985 20.4423 20.3468C22.1288 20.2734 23.3811 19.2314 23.4935 17.4939C23.6172 15.5591 23.4001 13.4979 23.4948 11.5492C23.4001 10.0646 22.4053 8.91004 20.9233 8.70012C17.4163 8.77094 13.8526 8.5547 10.3684 8.68369V8.68495Z" fill="#0068FF"/>
<path d="M18.3532 14.4377L12.9375 17.3399L12.9716 11.6733L18.3532 14.4377Z" fill="#0068FF"/>
</g>
<defs>
<clipPath id="clip0_782_16223">
<rect width="28.6993" height="28.6993" fill="white" transform="translate(0.865234 0.150391)"/>
</clipPath>
</defs>
</svg>
